<?xml version="1.0" standalone="no"?>
<!DOCTYPE svg PUBLIC "-//W3C//DTD SVG 20010904//EN"
 "http://www.w3.org/TR/2001/REC-SVG-20010904/DTD/svg10.dtd">
<svg id="logo" version="1.0" xmlns="http://www.w3.org/2000/svg"
 width="100%" height="100%" viewBox="0 0 370.000000 120.000000"
 preserveAspectRatio="xMidYMid meet">

<g transform="translate(0.000000,120.000000) scale(0.100000,-0.100000)"
fill="#fff" stroke="none">
<path d="M502 1086 c-173 -42 -322 -188 -368 -361 -18 -67 -17 -177 1 -250 46
-175 185 -314 360 -360 46 -12 119 -15 330 -15 283 0 305 3 284 42 -9 16 -23
18 -132 18 l-122 0 34 21 c108 65 198 206 222 342 58 343 -269 645 -609 563z
m198 -56 c118 -22 220 -93 287 -198 87 -135 90 -310 7 -455 -106 -188 -367
-270 -562 -175 -150 72 -252 230 -252 391 0 282 246 489 520 437z"/>
<path d="M538 973 c-15 -2 -37 -16 -49 -31 -26 -34 -22 -88 12 -157 49 -98
118 -122 185 -63 63 55 96 175 61 222 -21 29 -118 43 -209 29z m146 -59 c9 -3
16 -18 16 -33 l0 -26 -82 2 c-80 2 -83 2 -86 26 -2 18 2 27 15 30 28 7 119 8
137 1z m-14 -121 c0 -14 -34 -43 -50 -43 -9 0 -27 11 -40 25 l-23 25 56 0 c31
0 57 -3 57 -7z"/>
<path d="M290 738 c-41 -22 -51 -54 -48 -150 3 -75 6 -91 25 -110 47 -47 166
-18 231 57 57 64 33 134 -60 178 -68 33 -116 41 -148 25z m63 -54 c11 -4 13
-13 6 -42 -4 -20 -5 -55 -2 -78 4 -33 2 -42 -12 -48 -32 -12 -45 12 -45 83 0
79 13 101 53 85z m99 -51 c10 -9 18 -24 18 -33 0 -17 -36 -57 -44 -49 -11 11
-10 99 1 99 3 0 15 -7 25 -17z"/>
<path d="M838 734 c-27 -8 -65 -31 -88 -53 -34 -32 -40 -44 -40 -78 0 -26 8
-50 21 -67 26 -33 100 -71 156 -81 38 -6 46 -4 71 22 42 41 52 133 25 226 -5
18 -59 48 -85 46 -7 0 -34 -7 -60 -15z m95 -87 c18 -75 -7 -146 -46 -132 -15
6 -17 156 -2 167 20 16 40 2 48 -35z m-113 -47 c0 -54 -4 -59 -32 -33 -22 20
-23 46 -2 67 26 26 34 18 34 -34z"/>
<path d="M594 615 c-8 -21 2 -45 19 -45 8 0 20 7 27 15 10 12 10 18 0 30 -7 8
-19 15 -27 15 -7 0 -16 -7 -19 -15z"/>
<path d="M539 470 c-38 -39 -69 -116 -69 -167 0 -58 84 -92 193 -80 69 9 97
36 97 97 0 60 -42 145 -84 171 -52 32 -93 25 -137 -21z m116 -40 c24 -27 17
-32 -45 -28 l-51 3 21 23 c26 27 51 28 75 2z m45 -111 c0 -30 -19 -39 -85 -39
-62 0 -85 9 -85 34 0 13 2 25 4 27 2 2 41 4 85 4 81 0 81 0 81 -26z"/>
<path d="M2698 859 c-36 -21 -16 -79 27 -79 44 0 63 60 26 80 -24 12 -31 12
-53 -1z"/>
<path d="M1270 635 l0 -215 45 0 45 0 0 75 0 75 43 0 c58 1 122 32 141 69 26
48 21 124 -10 160 -32 38 -77 51 -181 51 l-83 0 0 -215z m165 135 c56 -21 52
-99 -6 -119 -65 -22 -69 -19 -69 59 0 68 1 70 24 70 14 0 36 -4 51 -10z"/>
<path d="M2290 635 l0 -215 45 0 45 0 0 80 c0 68 3 81 19 90 22 11 28 4 95
-107 l37 -63 50 0 c38 0 48 3 43 13 -5 6 -39 61 -76 120 l-68 108 76 94 75 95
-49 0 -50 0 -73 -95 -74 -94 -3 94 -3 95 -44 0 -45 0 0 -215z"/>
<path d="M1640 581 l0 -161 39 0 39 0 4 101 c3 91 6 103 27 120 13 11 38 19
57 19 26 0 34 4 34 18 0 9 3 27 6 40 6 20 3 22 -29 22 -23 0 -46 -9 -65 -25
-37 -31 -40 -31 -44 -2 -2 17 -11 23 -35 25 l-33 3 0 -160z"/>
<path d="M1975 730 c-74 -30 -105 -139 -65 -227 25 -57 69 -83 140 -83 100 0
153 56 153 160 0 105 -53 160 -153 159 -30 0 -64 -4 -75 -9z m125 -76 c22 -21
20 -128 -2 -150 -25 -25 -77 -22 -100 5 -20 26 -25 100 -7 132 20 39 75 45
109 13z"/>
<path d="M2680 580 l0 -160 45 0 45 0 0 160 0 160 -45 0 -45 0 0 -160z"/>
<path d="M2870 580 l0 -160 40 0 40 0 0 89 c0 104 13 149 47 162 34 13 40 12
63 -11 18 -18 20 -33 20 -130 l0 -110 46 0 46 0 -4 128 c-3 70 -8 135 -13 145
-20 47 -131 64 -178 27 -14 -11 -27 -20 -30 -20 -3 0 -7 9 -10 20 -4 15 -14
20 -36 20 l-31 0 0 -160z"/>
<path d="M3306 720 c-83 -54 -89 -199 -12 -270 37 -34 146 -41 192 -12 46 29
67 82 62 156 -6 101 -54 146 -155 146 -41 0 -67 -6 -87 -20z m151 -88 c17 -70
3 -126 -38 -142 -27 -11 -33 -11 -57 7 -23 17 -27 29 -30 77 -3 61 6 82 43 96
31 12 74 -8 82 -38z"/>
</g>
</svg>
